<?xml version="1.0" encoding="UTF-8"?>
<svg xmlns="http://www.w3.org/2000/svg" xmlns:xlink="http://www.w3.org/1999/xlink" width="194" height="121" viewBox="0 0 194 121">
<defs>
<g>
<g id="glyph-0-0">
<path d="M 4.1875 -4.453125 C 4.1875 -5.375 3.890625 -6.34375 3.0625 -6.34375 C 1.75 -6.34375 0.375 -3.78125 0.375 -1.78125 C 0.375 -1.140625 0.5625 0.09375 1.5 0.09375 C 2.8125 0.09375 4.1875 -2.4375 4.1875 -4.453125 Z M 1.34375 -3.265625 C 1.53125 -3.984375 1.71875 -4.640625 2.09375 -5.25 C 2.296875 -5.609375 2.640625 -6.125 3.046875 -6.125 C 3.53125 -6.125 3.578125 -5.34375 3.578125 -5 C 3.578125 -4.46875 3.421875 -3.828125 3.296875 -3.265625 Z M 3.21875 -2.984375 C 3.0625 -2.40625 2.890625 -1.734375 2.53125 -1.09375 C 2.296875 -0.671875 1.9375 -0.125 1.515625 -0.125 C 1.125 -0.125 1 -0.59375 1 -1.25 C 1 -1.828125 1.140625 -2.40625 1.28125 -2.984375 Z M 3.21875 -2.984375 "/>
</g>
<g id="glyph-1-0">
<path d="M 3.5 -3.171875 C 3.5625 -3.4375 3.8125 -4.40625 4.546875 -4.40625 C 4.59375 -4.40625 4.84375 -4.40625 5.078125 -4.28125 C 4.78125 -4.21875 4.5625 -3.953125 4.5625 -3.703125 C 4.5625 -3.53125 4.6875 -3.34375 4.96875 -3.34375 C 5.203125 -3.34375 5.53125 -3.53125 5.53125 -3.953125 C 5.53125 -4.5 4.90625 -4.640625 4.5625 -4.640625 C 3.953125 -4.640625 3.578125 -4.078125 3.453125 -3.84375 C 3.1875 -4.53125 2.625 -4.640625 2.328125 -4.640625 C 1.234375 -4.640625 0.625 -3.28125 0.625 -3.03125 C 0.625 -2.921875 0.734375 -2.921875 0.75 -2.921875 C 0.84375 -2.921875 0.875 -2.9375 0.890625 -3.03125 C 1.25 -4.140625 1.9375 -4.40625 2.296875 -4.40625 C 2.5 -4.40625 2.859375 -4.3125 2.859375 -3.703125 C 2.859375 -3.375 2.6875 -2.671875 2.296875 -1.203125 C 2.125 -0.5625 1.765625 -0.109375 1.296875 -0.109375 C 1.234375 -0.109375 1 -0.109375 0.78125 -0.25 C 1.046875 -0.296875 1.265625 -0.53125 1.265625 -0.8125 C 1.265625 -1.109375 1.046875 -1.1875 0.875 -1.1875 C 0.5625 -1.1875 0.296875 -0.90625 0.296875 -0.578125 C 0.296875 -0.09375 0.828125 0.109375 1.296875 0.109375 C 1.984375 0.109375 2.359375 -0.625 2.390625 -0.6875 C 2.515625 -0.296875 2.890625 0.109375 3.53125 0.109375 C 4.609375 0.109375 5.203125 -1.234375 5.203125 -1.5 C 5.203125 -1.609375 5.109375 -1.609375 5.078125 -1.609375 C 4.984375 -1.609375 4.96875 -1.5625 4.953125 -1.484375 C 4.59375 -0.375 3.890625 -0.109375 3.546875 -0.109375 C 3.140625 -0.109375 2.96875 -0.453125 2.96875 -0.8125 C 2.96875 -1.046875 3.03125 -1.265625 3.15625 -1.734375 Z M 3.5 -3.171875 "/>
</g>
<g id="glyph-2-0">
<path d="M 3.0625 2.140625 C 3.0625 2.09375 3.046875 2.0625 2.984375 2 C 1.828125 0.9375 1.46875 -0.671875 1.46875 -2.25 C 1.46875 -3.640625 1.75 -5.34375 3.015625 -6.546875 C 3.046875 -6.578125 3.0625 -6.609375 3.0625 -6.65625 C 3.0625 -6.71875 3.03125 -6.75 2.96875 -6.75 C 2.859375 -6.75 2.046875 -6.109375 1.5625 -5.125 C 1.125 -4.25 0.90625 -3.328125 0.90625 -2.265625 C 0.90625 -1.609375 0.984375 -0.578125 1.484375 0.484375 C 2.015625 1.578125 2.859375 2.234375 2.96875 2.234375 C 3.03125 2.234375 3.0625 2.203125 3.0625 2.140625 Z M 3.0625 2.140625 "/>
</g>
<g id="glyph-3-0">
<path d="M 4.421875 -3.640625 C 4.09375 -3.578125 4 -3.28125 4 -3.15625 C 4 -2.984375 4.125 -2.828125 4.34375 -2.828125 C 4.59375 -2.828125 4.84375 -3.046875 4.84375 -3.359375 C 4.84375 -3.765625 4.390625 -3.984375 3.96875 -3.984375 C 3.421875 -3.984375 3.109375 -3.5 3 -3.3125 C 2.828125 -3.75 2.4375 -3.984375 2 -3.984375 C 1.046875 -3.984375 0.515625 -2.828125 0.515625 -2.59375 C 0.515625 -2.515625 0.578125 -2.484375 0.640625 -2.484375 C 0.734375 -2.484375 0.75 -2.53125 0.78125 -2.578125 C 1.046875 -3.46875 1.640625 -3.75 1.984375 -3.75 C 2.25 -3.75 2.484375 -3.578125 2.484375 -3.15625 C 2.484375 -2.828125 2.09375 -1.390625 1.984375 -0.96875 C 1.90625 -0.6875 1.640625 -0.125 1.140625 -0.125 C 0.96875 -0.125 0.78125 -0.1875 0.6875 -0.25 C 0.921875 -0.28125 1.109375 -0.5 1.109375 -0.734375 C 1.109375 -0.953125 0.9375 -1.046875 0.765625 -1.046875 C 0.5 -1.046875 0.265625 -0.828125 0.265625 -0.515625 C 0.265625 -0.078125 0.75 0.09375 1.140625 0.09375 C 1.65625 0.09375 1.96875 -0.328125 2.09375 -0.578125 C 2.328125 0.015625 2.859375 0.09375 3.09375 0.09375 C 4.0625 0.09375 4.578125 -1.078125 4.578125 -1.28125 C 4.578125 -1.328125 4.546875 -1.390625 4.46875 -1.390625 C 4.359375 -1.390625 4.359375 -1.359375 4.3125 -1.21875 C 4.109375 -0.578125 3.59375 -0.125 3.125 -0.125 C 2.859375 -0.125 2.625 -0.28125 2.625 -0.71875 C 2.625 -0.921875 2.75 -1.40625 2.828125 -1.75 C 2.859375 -1.921875 3.109375 -2.890625 3.125 -2.953125 C 3.234375 -3.28125 3.5 -3.75 3.953125 -3.75 C 4.125 -3.75 4.296875 -3.71875 4.421875 -3.640625 Z M 4.421875 -3.640625 "/>
</g>
<g id="glyph-4-0">
<path d="M 2.78125 -2.296875 C 2.703125 -2.28125 2.5 -2.171875 2.5 -1.953125 C 2.5 -1.8125 2.609375 -1.734375 2.734375 -1.734375 C 2.875 -1.734375 3.078125 -1.828125 3.078125 -2.125 C 3.078125 -2.5 2.625 -2.640625 2.25 -2.640625 C 1.3125 -2.640625 0.453125 -1.84375 0.453125 -1 C 0.453125 -0.4375 0.859375 0.0625 1.640625 0.0625 C 2.765625 0.0625 3.1875 -0.53125 3.1875 -0.609375 C 3.1875 -0.65625 3.125 -0.71875 3.078125 -0.71875 C 3.046875 -0.71875 3.046875 -0.71875 2.953125 -0.625 C 2.625 -0.25 2.078125 -0.140625 1.640625 -0.140625 C 1.15625 -0.140625 0.96875 -0.453125 0.96875 -0.8125 C 0.96875 -0.828125 0.984375 -1.515625 1.390625 -2.03125 C 1.484375 -2.125 1.796875 -2.4375 2.25 -2.4375 C 2.28125 -2.4375 2.59375 -2.4375 2.78125 -2.296875 Z M 2.78125 -2.296875 "/>
</g>
<g id="glyph-5-0">
<path d="M 1.640625 -0.140625 C 1.640625 0.15625 1.640625 0.890625 0.96875 1.53125 C 0.921875 1.578125 0.921875 1.59375 0.921875 1.625 C 0.921875 1.6875 0.984375 1.734375 1.03125 1.734375 C 1.140625 1.734375 1.859375 1.03125 1.859375 -0.015625 C 1.859375 -0.578125 1.671875 -0.96875 1.28125 -0.96875 C 0.96875 -0.96875 0.796875 -0.734375 0.796875 -0.484375 C 0.796875 -0.234375 0.96875 0 1.28125 0 C 1.40625 0 1.546875 -0.046875 1.640625 -0.140625 Z M 1.640625 -0.140625 "/>
</g>
<g id="glyph-5-1">
<path d="M 4.515625 -3.46875 C 4.53125 -3.515625 4.546875 -3.5625 4.546875 -3.625 C 4.546875 -3.734375 4.46875 -3.875 4.265625 -3.875 C 4.15625 -3.875 3.984375 -3.8125 3.921875 -3.640625 C 3.90625 -3.59375 3.8125 -3.234375 3.765625 -3.03125 L 3.3125 -1.234375 C 3.234375 -0.96875 3.234375 -0.953125 3.21875 -0.875 C 3.21875 -0.84375 2.828125 -0.125 2.1875 -0.125 C 1.625 -0.125 1.625 -0.6875 1.625 -0.859375 C 1.625 -1.265625 1.75 -1.703125 2.140625 -2.71875 C 2.203125 -2.921875 2.265625 -3.046875 2.265625 -3.21875 C 2.265625 -3.65625 1.921875 -3.984375 1.484375 -3.984375 C 0.625 -3.984375 0.265625 -2.703125 0.265625 -2.59375 C 0.265625 -2.515625 0.328125 -2.484375 0.390625 -2.484375 C 0.484375 -2.484375 0.5 -2.53125 0.53125 -2.65625 C 0.71875 -3.328125 1.078125 -3.75 1.453125 -3.75 C 1.671875 -3.75 1.671875 -3.578125 1.671875 -3.453125 C 1.671875 -3.296875 1.640625 -3.140625 1.5625 -2.921875 C 1.140625 -1.8125 1.015625 -1.4375 1.015625 -1 C 1.015625 0 1.828125 0.09375 2.15625 0.09375 C 2.59375 0.09375 2.921875 -0.140625 3.078125 -0.296875 C 2.96875 0.15625 2.859375 0.5625 2.515625 1.015625 C 2.234375 1.375 1.875 1.625 1.484375 1.625 C 1.234375 1.625 0.9375 1.53125 0.8125 1.28125 C 1.28125 1.28125 1.34375 0.875 1.34375 0.796875 C 1.34375 0.59375 1.203125 0.46875 1.015625 0.46875 C 0.796875 0.46875 0.5 0.640625 0.5 1.046875 C 0.5 1.515625 0.921875 1.84375 1.484375 1.84375 C 2.40625 1.84375 3.390625 1.0625 3.640625 0.015625 Z M 4.515625 -3.46875 "/>
</g>
<g id="glyph-6-0">
<path d="M 2.6875 -2.265625 C 2.6875 -3 2.578125 -3.984375 2.109375 -4.984375 C 1.578125 -6.09375 0.734375 -6.75 0.625 -6.75 C 0.546875 -6.75 0.515625 -6.671875 0.515625 -6.65625 C 0.515625 -6.609375 0.546875 -6.578125 0.609375 -6.515625 C 1.125 -6.046875 2.109375 -4.828125 2.109375 -2.265625 C 2.109375 -0.96875 1.875 0.8125 0.578125 2.03125 C 0.5625 2.0625 0.515625 2.09375 0.515625 2.140625 C 0.515625 2.171875 0.546875 2.234375 0.625 2.234375 C 0.734375 2.234375 1.546875 1.59375 2.03125 0.609375 C 2.46875 -0.25 2.6875 -1.171875 2.6875 -2.265625 Z M 2.6875 -2.265625 "/>
</g>
<g id="glyph-7-0">
<path d="M 3.0625 2.140625 C 3.0625 2.09375 3.046875 2.0625 2.984375 2 C 1.828125 0.9375 1.46875 -0.671875 1.46875 -2.25 C 1.46875 -3.640625 1.75 -5.34375 3.015625 -6.546875 C 3.046875 -6.578125 3.0625 -6.609375 3.0625 -6.65625 C 3.0625 -6.71875 3.03125 -6.75 2.96875 -6.75 C 2.859375 -6.75 2.046875 -6.109375 1.5625 -5.125 C 1.125 -4.25 0.90625 -3.328125 0.90625 -2.265625 C 0.90625 -1.609375 0.984375 -0.578125 1.484375 0.484375 C 2.015625 1.578125 2.859375 2.234375 2.96875 2.234375 C 3.03125 2.234375 3.0625 2.203125 3.0625 2.140625 Z M 3.0625 2.140625 "/>
</g>
<g id="glyph-8-0">
<path d="M 4.421875 -3.640625 C 4.09375 -3.578125 4 -3.28125 4 -3.15625 C 4 -2.984375 4.125 -2.828125 4.34375 -2.828125 C 4.59375 -2.828125 4.84375 -3.046875 4.84375 -3.359375 C 4.84375 -3.765625 4.390625 -3.984375 3.96875 -3.984375 C 3.421875 -3.984375 3.109375 -3.5 3 -3.3125 C 2.828125 -3.75 2.4375 -3.984375 2 -3.984375 C 1.046875 -3.984375 0.515625 -2.828125 0.515625 -2.59375 C 0.515625 -2.515625 0.578125 -2.484375 0.640625 -2.484375 C 0.734375 -2.484375 0.75 -2.53125 0.78125 -2.578125 C 1.046875 -3.46875 1.640625 -3.75 1.984375 -3.75 C 2.25 -3.75 2.484375 -3.578125 2.484375 -3.15625 C 2.484375 -2.828125 2.09375 -1.390625 1.984375 -0.96875 C 1.90625 -0.6875 1.640625 -0.125 1.140625 -0.125 C 0.96875 -0.125 0.78125 -0.1875 0.6875 -0.25 C 0.921875 -0.28125 1.109375 -0.5 1.109375 -0.734375 C 1.109375 -0.953125 0.9375 -1.046875 0.765625 -1.046875 C 0.5 -1.046875 0.265625 -0.828125 0.265625 -0.515625 C 0.265625 -0.078125 0.75 0.09375 1.140625 0.09375 C 1.65625 0.09375 1.96875 -0.328125 2.09375 -0.578125 C 2.328125 0.015625 2.859375 0.09375 3.09375 0.09375 C 4.0625 0.09375 4.578125 -1.078125 4.578125 -1.28125 C 4.578125 -1.328125 4.546875 -1.390625 4.46875 -1.390625 C 4.359375 -1.390625 4.359375 -1.359375 4.3125 -1.21875 C 4.109375 -0.578125 3.59375 -0.125 3.125 -0.125 C 2.859375 -0.125 2.625 -0.28125 2.625 -0.71875 C 2.625 -0.921875 2.75 -1.40625 2.828125 -1.75 C 2.859375 -1.921875 3.109375 -2.890625 3.125 -2.953125 C 3.234375 -3.28125 3.5 -3.75 3.953125 -3.75 C 4.125 -3.75 4.296875 -3.71875 4.421875 -3.640625 Z M 4.421875 -3.640625 "/>
</g>
<g id="glyph-9-0">
<path d="M 1.796875 -3.96875 C 1.796875 -4 1.8125 -4.03125 1.8125 -4.0625 C 1.8125 -4.15625 1.6875 -4.15625 1.625 -4.140625 L 0.953125 -4.09375 C 0.84375 -4.09375 0.765625 -4.078125 0.765625 -3.9375 C 0.765625 -3.84375 0.84375 -3.84375 0.953125 -3.84375 C 1.125 -3.84375 1.15625 -3.828125 1.234375 -3.8125 C 1.234375 -3.734375 1.234375 -3.71875 1.21875 -3.625 L 0.484375 -0.71875 C 0.46875 -0.65625 0.453125 -0.59375 0.453125 -0.515625 C 0.453125 -0.15625 0.796875 0.0625 1.125 0.0625 C 1.375 0.0625 1.515625 -0.109375 1.609375 -0.234375 C 1.765625 -0.5 1.84375 -0.84375 1.84375 -0.859375 C 1.84375 -0.875 1.84375 -0.953125 1.734375 -0.953125 C 1.640625 -0.953125 1.625 -0.90625 1.609375 -0.8125 C 1.5 -0.390625 1.359375 -0.140625 1.15625 -0.140625 C 0.921875 -0.140625 0.921875 -0.375 0.921875 -0.4375 C 0.921875 -0.53125 0.9375 -0.578125 0.953125 -0.640625 Z M 1.796875 -3.96875 "/>
</g>
<g id="glyph-10-0">
<path d="M 1.640625 -0.140625 C 1.640625 0.15625 1.640625 0.890625 0.96875 1.53125 C 0.921875 1.578125 0.921875 1.59375 0.921875 1.625 C 0.921875 1.6875 0.984375 1.734375 1.03125 1.734375 C 1.140625 1.734375 1.859375 1.03125 1.859375 -0.015625 C 1.859375 -0.578125 1.671875 -0.96875 1.28125 -0.96875 C 0.96875 -0.96875 0.796875 -0.734375 0.796875 -0.484375 C 0.796875 -0.234375 0.96875 0 1.28125 0 C 1.40625 0 1.546875 -0.046875 1.640625 -0.140625 Z M 1.640625 -0.140625 "/>
</g>
<g id="glyph-11-0">
<path d="M 4.25 -2.875 C 4.25 -3.484375 4.234375 -4.25 3.921875 -4.9375 C 3.515625 -5.78125 2.828125 -6 2.3125 -6 C 1.765625 -6 1.09375 -5.78125 0.6875 -4.90625 C 0.40625 -4.296875 0.359375 -3.5625 0.359375 -2.875 C 0.359375 -2.296875 0.375 -1.421875 0.765625 -0.71875 C 1.1875 0.046875 1.890625 0.203125 2.296875 0.203125 C 2.890625 0.203125 3.5625 -0.046875 3.9375 -0.875 C 4.203125 -1.484375 4.25 -2.15625 4.25 -2.875 Z M 2.3125 -0.03125 C 2.046875 -0.03125 1.390625 -0.15625 1.21875 -1.171875 C 1.140625 -1.703125 1.140625 -2.46875 1.140625 -2.984375 C 1.140625 -3.59375 1.140625 -4.3125 1.234375 -4.8125 C 1.421875 -5.609375 2 -5.765625 2.296875 -5.765625 C 2.640625 -5.765625 3.21875 -5.59375 3.390625 -4.75 C 3.484375 -4.25 3.484375 -3.5625 3.484375 -2.984375 C 3.484375 -2.4375 3.484375 -1.671875 3.390625 -1.140625 C 3.203125 -0.109375 2.53125 -0.03125 2.3125 -0.03125 Z M 2.3125 -0.03125 "/>
</g>
<g id="glyph-11-1">
<path d="M 2.6875 -2.265625 C 2.6875 -3 2.578125 -3.984375 2.109375 -4.984375 C 1.578125 -6.09375 0.734375 -6.75 0.625 -6.75 C 0.546875 -6.75 0.515625 -6.671875 0.515625 -6.65625 C 0.515625 -6.609375 0.546875 -6.578125 0.609375 -6.515625 C 1.125 -6.046875 2.109375 -4.828125 2.109375 -2.265625 C 2.109375 -0.96875 1.875 0.8125 0.578125 2.03125 C 0.5625 2.0625 0.515625 2.09375 0.515625 2.140625 C 0.515625 2.171875 0.546875 2.234375 0.625 2.234375 C 0.734375 2.234375 1.546875 1.59375 2.03125 0.609375 C 2.46875 -0.25 2.6875 -1.171875 2.6875 -2.265625 Z M 2.6875 -2.265625 "/>
</g>
<g id="glyph-12-0">
<path d="M 3.0625 2.140625 C 3.0625 2.09375 3.046875 2.0625 2.984375 2 C 1.828125 0.9375 1.46875 -0.671875 1.46875 -2.25 C 1.46875 -3.640625 1.75 -5.34375 3.015625 -6.546875 C 3.046875 -6.578125 3.0625 -6.609375 3.0625 -6.65625 C 3.0625 -6.71875 3.03125 -6.75 2.96875 -6.75 C 2.859375 -6.75 2.046875 -6.109375 1.5625 -5.125 C 1.125 -4.25 0.90625 -3.328125 0.90625 -2.265625 C 0.90625 -1.609375 0.984375 -0.578125 1.484375 0.484375 C 2.015625 1.578125 2.859375 2.234375 2.96875 2.234375 C 3.03125 2.234375 3.0625 2.203125 3.0625 2.140625 Z M 3.0625 2.140625 "/>
</g>
<g id="glyph-13-0">
<path d="M 4.421875 -3.640625 C 4.09375 -3.578125 4 -3.28125 4 -3.15625 C 4 -2.984375 4.125 -2.828125 4.34375 -2.828125 C 4.59375 -2.828125 4.84375 -3.046875 4.84375 -3.359375 C 4.84375 -3.765625 4.390625 -3.984375 3.96875 -3.984375 C 3.421875 -3.984375 3.109375 -3.5 3 -3.3125 C 2.828125 -3.75 2.4375 -3.984375 2 -3.984375 C 1.046875 -3.984375 0.515625 -2.828125 0.515625 -2.59375 C 0.515625 -2.515625 0.578125 -2.484375 0.640625 -2.484375 C 0.734375 -2.484375 0.75 -2.53125 0.78125 -2.578125 C 1.046875 -3.46875 1.640625 -3.75 1.984375 -3.75 C 2.25 -3.75 2.484375 -3.578125 2.484375 -3.15625 C 2.484375 -2.828125 2.09375 -1.390625 1.984375 -0.96875 C 1.90625 -0.6875 1.640625 -0.125 1.140625 -0.125 C 0.96875 -0.125 0.78125 -0.1875 0.6875 -0.25 C 0.921875 -0.28125 1.109375 -0.5 1.109375 -0.734375 C 1.109375 -0.953125 0.9375 -1.046875 0.765625 -1.046875 C 0.5 -1.046875 0.265625 -0.828125 0.265625 -0.515625 C 0.265625 -0.078125 0.75 0.09375 1.140625 0.09375 C 1.65625 0.09375 1.96875 -0.328125 2.09375 -0.578125 C 2.328125 0.015625 2.859375 0.09375 3.09375 0.09375 C 4.0625 0.09375 4.578125 -1.078125 4.578125 -1.28125 C 4.578125 -1.328125 4.546875 -1.390625 4.46875 -1.390625 C 4.359375 -1.390625 4.359375 -1.359375 4.3125 -1.21875 C 4.109375 -0.578125 3.59375 -0.125 3.125 -0.125 C 2.859375 -0.125 2.625 -0.28125 2.625 -0.71875 C 2.625 -0.921875 2.75 -1.40625 2.828125 -1.75 C 2.859375 -1.921875 3.109375 -2.890625 3.125 -2.953125 C 3.234375 -3.28125 3.5 -3.75 3.953125 -3.75 C 4.125 -3.75 4.296875 -3.71875 4.421875 -3.640625 Z M 4.421875 -3.640625 "/>
</g>
<g id="glyph-14-0">
<path d="M 1.703125 -1.796875 C 1.71875 -1.8125 1.859375 -2.09375 2.09375 -2.28125 C 2.15625 -2.328125 2.328125 -2.4375 2.609375 -2.4375 C 2.65625 -2.4375 2.859375 -2.4375 3.015625 -2.359375 C 2.859375 -2.296875 2.765625 -2.15625 2.765625 -2.03125 C 2.765625 -1.84375 2.921875 -1.796875 3 -1.796875 C 3.171875 -1.796875 3.34375 -1.9375 3.34375 -2.171875 C 3.34375 -2.484375 3 -2.640625 2.625 -2.640625 C 2.46875 -2.640625 2.09375 -2.625 1.734375 -2.203125 C 1.640625 -2.515625 1.328125 -2.640625 1.078125 -2.640625 C 0.8125 -2.640625 0.671875 -2.46875 0.59375 -2.328125 C 0.453125 -2.09375 0.359375 -1.765625 0.359375 -1.71875 C 0.359375 -1.65625 0.421875 -1.640625 0.46875 -1.640625 C 0.5625 -1.640625 0.578125 -1.671875 0.609375 -1.765625 C 0.71875 -2.234375 0.859375 -2.4375 1.0625 -2.4375 C 1.25 -2.4375 1.28125 -2.265625 1.28125 -2.140625 C 1.28125 -2.046875 1.21875 -1.796875 1.171875 -1.640625 C 1.125 -1.46875 1.078125 -1.234375 1.046875 -1.09375 C 1 -0.953125 0.96875 -0.796875 0.921875 -0.640625 C 0.875 -0.46875 0.8125 -0.171875 0.8125 -0.140625 C 0.8125 0 0.90625 0.0625 1.015625 0.0625 C 1.140625 0.0625 1.25 -0.03125 1.28125 -0.140625 C 1.296875 -0.1875 1.53125 -1.09375 1.5625 -1.234375 Z M 1.703125 -1.796875 "/>
</g>
<g id="glyph-15-0">
<path d="M 1.640625 -0.140625 C 1.640625 0.15625 1.640625 0.890625 0.96875 1.53125 C 0.921875 1.578125 0.921875 1.59375 0.921875 1.625 C 0.921875 1.6875 0.984375 1.734375 1.03125 1.734375 C 1.140625 1.734375 1.859375 1.03125 1.859375 -0.015625 C 1.859375 -0.578125 1.671875 -0.96875 1.28125 -0.96875 C 0.96875 -0.96875 0.796875 -0.734375 0.796875 -0.484375 C 0.796875 -0.234375 0.96875 0 1.28125 0 C 1.40625 0 1.546875 -0.046875 1.640625 -0.140625 Z M 1.640625 -0.140625 "/>
</g>
<g id="glyph-16-0">
<path d="M 4.25 -2.875 C 4.25 -3.484375 4.234375 -4.25 3.921875 -4.9375 C 3.515625 -5.78125 2.828125 -6 2.3125 -6 C 1.765625 -6 1.09375 -5.78125 0.6875 -4.90625 C 0.40625 -4.296875 0.359375 -3.5625 0.359375 -2.875 C 0.359375 -2.296875 0.375 -1.421875 0.765625 -0.71875 C 1.1875 0.046875 1.890625 0.203125 2.296875 0.203125 C 2.890625 0.203125 3.5625 -0.046875 3.9375 -0.875 C 4.203125 -1.484375 4.25 -2.15625 4.25 -2.875 Z M 2.3125 -0.03125 C 2.046875 -0.03125 1.390625 -0.15625 1.21875 -1.171875 C 1.140625 -1.703125 1.140625 -2.46875 1.140625 -2.984375 C 1.140625 -3.59375 1.140625 -4.3125 1.234375 -4.8125 C 1.421875 -5.609375 2 -5.765625 2.296875 -5.765625 C 2.640625 -5.765625 3.21875 -5.59375 3.390625 -4.75 C 3.484375 -4.25 3.484375 -3.5625 3.484375 -2.984375 C 3.484375 -2.4375 3.484375 -1.671875 3.390625 -1.140625 C 3.203125 -0.109375 2.53125 -0.03125 2.3125 -0.03125 Z M 2.3125 -0.03125 "/>
</g>
<g id="glyph-16-1">
<path d="M 2.6875 -2.265625 C 2.6875 -3 2.578125 -3.984375 2.109375 -4.984375 C 1.578125 -6.09375 0.734375 -6.75 0.625 -6.75 C 0.546875 -6.75 0.515625 -6.671875 0.515625 -6.65625 C 0.515625 -6.609375 0.546875 -6.578125 0.609375 -6.515625 C 1.125 -6.046875 2.109375 -4.828125 2.109375 -2.265625 C 2.109375 -0.96875 1.875 0.8125 0.578125 2.03125 C 0.5625 2.0625 0.515625 2.09375 0.515625 2.140625 C 0.515625 2.171875 0.546875 2.234375 0.625 2.234375 C 0.734375 2.234375 1.546875 1.59375 2.03125 0.609375 C 2.46875 -0.25 2.6875 -1.171875 2.6875 -2.265625 Z M 2.6875 -2.265625 "/>
</g>
<g id="glyph-17-0">
<path d="M 1.46875 -6.421875 C 1.46875 -6.5625 1.46875 -6.75 1.28125 -6.75 C 1.09375 -6.75 1.09375 -6.578125 1.09375 -6.421875 L 1.09375 1.921875 C 1.09375 2.0625 1.09375 2.25 1.28125 2.25 C 1.46875 2.25 1.46875 2.078125 1.46875 1.921875 Z M 1.46875 -6.421875 "/>
</g>
<g id="glyph-18-0">
<path d="M 4.421875 -3.640625 C 4.09375 -3.578125 4 -3.28125 4 -3.15625 C 4 -2.984375 4.125 -2.828125 4.34375 -2.828125 C 4.59375 -2.828125 4.84375 -3.046875 4.84375 -3.359375 C 4.84375 -3.765625 4.390625 -3.984375 3.96875 -3.984375 C 3.421875 -3.984375 3.109375 -3.5 3 -3.3125 C 2.828125 -3.75 2.4375 -3.984375 2 -3.984375 C 1.046875 -3.984375 0.515625 -2.828125 0.515625 -2.59375 C 0.515625 -2.515625 0.578125 -2.484375 0.640625 -2.484375 C 0.734375 -2.484375 0.75 -2.53125 0.78125 -2.578125 C 1.046875 -3.46875 1.640625 -3.75 1.984375 -3.75 C 2.25 -3.75 2.484375 -3.578125 2.484375 -3.15625 C 2.484375 -2.828125 2.09375 -1.390625 1.984375 -0.96875 C 1.90625 -0.6875 1.640625 -0.125 1.140625 -0.125 C 0.96875 -0.125 0.78125 -0.1875 0.6875 -0.25 C 0.921875 -0.28125 1.109375 -0.5 1.109375 -0.734375 C 1.109375 -0.953125 0.9375 -1.046875 0.765625 -1.046875 C 0.5 -1.046875 0.265625 -0.828125 0.265625 -0.515625 C 0.265625 -0.078125 0.75 0.09375 1.140625 0.09375 C 1.65625 0.09375 1.96875 -0.328125 2.09375 -0.578125 C 2.328125 0.015625 2.859375 0.09375 3.09375 0.09375 C 4.0625 0.09375 4.578125 -1.078125 4.578125 -1.28125 C 4.578125 -1.328125 4.546875 -1.390625 4.46875 -1.390625 C 4.359375 -1.390625 4.359375 -1.359375 4.3125 -1.21875 C 4.109375 -0.578125 3.59375 -0.125 3.125 -0.125 C 2.859375 -0.125 2.625 -0.28125 2.625 -0.71875 C 2.625 -0.921875 2.75 -1.40625 2.828125 -1.75 C 2.859375 -1.921875 3.109375 -2.890625 3.125 -2.953125 C 3.234375 -3.28125 3.5 -3.75 3.953125 -3.75 C 4.125 -3.75 4.296875 -3.71875 4.421875 -3.640625 Z M 4.421875 -3.640625 "/>
</g>
<g id="glyph-19-0">
<path d="M 1.796875 -3.96875 C 1.796875 -4 1.8125 -4.03125 1.8125 -4.0625 C 1.8125 -4.15625 1.6875 -4.15625 1.625 -4.140625 L 0.953125 -4.09375 C 0.84375 -4.09375 0.765625 -4.078125 0.765625 -3.9375 C 0.765625 -3.84375 0.84375 -3.84375 0.953125 -3.84375 C 1.125 -3.84375 1.15625 -3.828125 1.234375 -3.8125 C 1.234375 -3.734375 1.234375 -3.71875 1.21875 -3.625 L 0.484375 -0.71875 C 0.46875 -0.65625 0.453125 -0.59375 0.453125 -0.515625 C 0.453125 -0.15625 0.796875 0.0625 1.125 0.0625 C 1.375 0.0625 1.515625 -0.109375 1.609375 -0.234375 C 1.765625 -0.5 1.84375 -0.84375 1.84375 -0.859375 C 1.84375 -0.875 1.84375 -0.953125 1.734375 -0.953125 C 1.640625 -0.953125 1.625 -0.90625 1.609375 -0.8125 C 1.5 -0.390625 1.359375 -0.140625 1.15625 -0.140625 C 0.921875 -0.140625 0.921875 -0.375 0.921875 -0.4375 C 0.921875 -0.53125 0.9375 -0.578125 0.953125 -0.640625 Z M 1.796875 -3.96875 "/>
</g>
<g id="glyph-20-0">
<path d="M 6.078125 -2.0625 C 6.234375 -2.0625 6.40625 -2.0625 6.40625 -2.265625 C 6.40625 -2.453125 6.234375 -2.453125 6.078125 -2.453125 L 1.109375 -2.453125 C 0.953125 -2.453125 0.78125 -2.453125 0.78125 -2.265625 C 0.78125 -2.0625 0.9375 -2.0625 1.109375 -2.0625 Z M 6.078125 -2.0625 "/>
</g>
<g id="glyph-21-0">
<path d="M 4.421875 -3.640625 C 4.09375 -3.578125 4 -3.28125 4 -3.15625 C 4 -2.984375 4.125 -2.828125 4.34375 -2.828125 C 4.59375 -2.828125 4.84375 -3.046875 4.84375 -3.359375 C 4.84375 -3.765625 4.390625 -3.984375 3.96875 -3.984375 C 3.421875 -3.984375 3.109375 -3.5 3 -3.3125 C 2.828125 -3.75 2.4375 -3.984375 2 -3.984375 C 1.046875 -3.984375 0.515625 -2.828125 0.515625 -2.59375 C 0.515625 -2.515625 0.578125 -2.484375 0.640625 -2.484375 C 0.734375 -2.484375 0.75 -2.53125 0.78125 -2.578125 C 1.046875 -3.46875 1.640625 -3.75 1.984375 -3.75 C 2.25 -3.75 2.484375 -3.578125 2.484375 -3.15625 C 2.484375 -2.828125 2.09375 -1.390625 1.984375 -0.96875 C 1.90625 -0.6875 1.640625 -0.125 1.140625 -0.125 C 0.96875 -0.125 0.78125 -0.1875 0.6875 -0.25 C 0.921875 -0.28125 1.109375 -0.5 1.109375 -0.734375 C 1.109375 -0.953125 0.9375 -1.046875 0.765625 -1.046875 C 0.5 -1.046875 0.265625 -0.828125 0.265625 -0.515625 C 0.265625 -0.078125 0.75 0.09375 1.140625 0.09375 C 1.65625 0.09375 1.96875 -0.328125 2.09375 -0.578125 C 2.328125 0.015625 2.859375 0.09375 3.09375 0.09375 C 4.0625 0.09375 4.578125 -1.078125 4.578125 -1.28125 C 4.578125 -1.328125 4.546875 -1.390625 4.46875 -1.390625 C 4.359375 -1.390625 4.359375 -1.359375 4.3125 -1.21875 C 4.109375 -0.578125 3.59375 -0.125 3.125 -0.125 C 2.859375 -0.125 2.625 -0.28125 2.625 -0.71875 C 2.625 -0.921875 2.75 -1.40625 2.828125 -1.75 C 2.859375 -1.921875 3.109375 -2.890625 3.125 -2.953125 C 3.234375 -3.28125 3.5 -3.75 3.953125 -3.75 C 4.125 -3.75 4.296875 -3.71875 4.421875 -3.640625 Z M 4.421875 -3.640625 "/>
</g>
<g id="glyph-22-0">
<path d="M 1.703125 -1.796875 C 1.71875 -1.8125 1.859375 -2.09375 2.09375 -2.28125 C 2.15625 -2.328125 2.328125 -2.4375 2.609375 -2.4375 C 2.65625 -2.4375 2.859375 -2.4375 3.015625 -2.359375 C 2.859375 -2.296875 2.765625 -2.15625 2.765625 -2.03125 C 2.765625 -1.84375 2.921875 -1.796875 3 -1.796875 C 3.171875 -1.796875 3.34375 -1.9375 3.34375 -2.171875 C 3.34375 -2.484375 3 -2.640625 2.625 -2.640625 C 2.46875 -2.640625 2.09375 -2.625 1.734375 -2.203125 C 1.640625 -2.515625 1.328125 -2.640625 1.078125 -2.640625 C 0.8125 -2.640625 0.671875 -2.46875 0.59375 -2.328125 C 0.453125 -2.09375 0.359375 -1.765625 0.359375 -1.71875 C 0.359375 -1.65625 0.421875 -1.640625 0.46875 -1.640625 C 0.5625 -1.640625 0.578125 -1.671875 0.609375 -1.765625 C 0.71875 -2.234375 0.859375 -2.4375 1.0625 -2.4375 C 1.25 -2.4375 1.28125 -2.265625 1.28125 -2.140625 C 1.28125 -2.046875 1.21875 -1.796875 1.171875 -1.640625 C 1.125 -1.46875 1.078125 -1.234375 1.046875 -1.09375 C 1 -0.953125 0.96875 -0.796875 0.921875 -0.640625 C 0.875 -0.46875 0.8125 -0.171875 0.8125 -0.140625 C 0.8125 0 0.90625 0.0625 1.015625 0.0625 C 1.140625 0.0625 1.25 -0.03125 1.28125 -0.140625 C 1.296875 -0.1875 1.53125 -1.09375 1.5625 -1.234375 Z M 1.703125 -1.796875 "/>
</g>
<g id="glyph-23-0">
<path d="M 1.46875 -6.421875 C 1.46875 -6.5625 1.46875 -6.75 1.28125 -6.75 C 1.09375 -6.75 1.09375 -6.578125 1.09375 -6.421875 L 1.09375 1.921875 C 1.09375 2.0625 1.09375 2.25 1.28125 2.25 C 1.46875 2.25 1.46875 2.078125 1.46875 1.921875 Z M 1.46875 -6.421875 "/>
</g>
<g id="glyph-24-0">
<path d="M 6.609375 -3.078125 C 6.875 -3.484375 7.109375 -3.5 7.328125 -3.515625 C 7.390625 -3.515625 7.421875 -3.59375 7.421875 -3.65625 C 7.421875 -3.734375 7.359375 -3.75 7.328125 -3.75 C 7.265625 -3.75 7.171875 -3.734375 7.09375 -3.734375 C 7.03125 -3.734375 6.9375 -3.734375 6.859375 -3.734375 C 6.859375 -3.734375 6.53125 -3.734375 6.53125 -3.734375 C 6.421875 -3.734375 6.3125 -3.75 6.203125 -3.75 C 6.125 -3.75 6.078125 -3.71875 6.078125 -3.609375 C 6.078125 -3.515625 6.15625 -3.515625 6.203125 -3.515625 C 6.265625 -3.5 6.5 -3.484375 6.5 -3.34375 C 6.5 -3.265625 6.453125 -3.203125 6.421875 -3.15625 L 4.765625 -0.609375 L 4.34375 -3.390625 C 4.421875 -3.5 4.5625 -3.515625 4.71875 -3.515625 C 4.828125 -3.515625 4.90625 -3.515625 4.90625 -3.65625 C 4.90625 -3.734375 4.859375 -3.75 4.8125 -3.75 C 4.703125 -3.75 4.5625 -3.734375 4.4375 -3.734375 C 4.3125 -3.734375 4.1875 -3.734375 4.0625 -3.734375 C 3.953125 -3.734375 3.84375 -3.734375 3.734375 -3.734375 C 3.640625 -3.734375 3.515625 -3.75 3.421875 -3.75 C 3.328125 -3.75 3.28125 -3.6875 3.28125 -3.609375 C 3.28125 -3.515625 3.375 -3.515625 3.453125 -3.515625 C 3.546875 -3.515625 3.703125 -3.515625 3.75 -3.453125 C 3.765625 -3.4375 3.796875 -3.15625 3.796875 -3.125 C 3.796875 -3.125 3.796875 -3.109375 3.765625 -3.0625 L 2.171875 -0.609375 L 1.765625 -3.3125 C 1.765625 -3.3125 1.765625 -3.375 1.765625 -3.375 C 1.765625 -3.515625 2.09375 -3.515625 2.140625 -3.515625 C 2.234375 -3.515625 2.328125 -3.515625 2.328125 -3.65625 C 2.328125 -3.703125 2.28125 -3.75 2.21875 -3.75 C 2.109375 -3.75 1.96875 -3.734375 1.859375 -3.734375 C 1.734375 -3.734375 1.59375 -3.734375 1.46875 -3.734375 C 1.359375 -3.734375 1.25 -3.734375 1.140625 -3.734375 C 1.078125 -3.734375 0.828125 -3.75 0.828125 -3.75 C 0.75 -3.75 0.6875 -3.71875 0.6875 -3.609375 C 0.6875 -3.515625 0.78125 -3.515625 0.84375 -3.515625 C 1.15625 -3.515625 1.15625 -3.484375 1.171875 -3.34375 L 1.671875 -0.03125 C 1.6875 0.0625 1.703125 0.125 1.828125 0.125 C 1.953125 0.125 1.984375 0.0625 2.03125 0 L 3.84375 -2.8125 L 4.265625 -0.03125 C 4.28125 0.078125 4.296875 0.125 4.421875 0.125 C 4.53125 0.125 4.578125 0.078125 4.625 -0.015625 Z M 6.609375 -3.078125 "/>
</g>
<g id="glyph-25-0">
<path d="M 2.421875 -4 C 2.421875 -4 2.4375 -4.015625 2.4375 -4.046875 C 2.4375 -4.0625 2.4375 -4.125 2.34375 -4.125 C 2.234375 -4.125 0.828125 -3.25 0.828125 -1.375 C 0.828125 0.484375 2.234375 1.375 2.34375 1.375 C 2.4375 1.375 2.4375 1.3125 2.4375 1.296875 C 2.4375 1.265625 2.421875 1.25 2.390625 1.21875 C 1.421875 0.453125 1.25 -0.671875 1.25 -1.375 C 1.25 -2.71875 1.875 -3.609375 2.421875 -4 Z M 2.421875 -4 "/>
</g>
<g id="glyph-26-0">
<path d="M 3.421875 -2.15625 C 3.15625 -2.078125 3.15625 -1.84375 3.15625 -1.828125 C 3.15625 -1.734375 3.234375 -1.609375 3.40625 -1.609375 C 3.5625 -1.609375 3.75 -1.734375 3.75 -1.984375 C 3.75 -2.296875 3.390625 -2.4375 3.09375 -2.4375 C 2.734375 -2.4375 2.515625 -2.203125 2.390625 -2.0625 C 2.21875 -2.375 1.859375 -2.4375 1.671875 -2.4375 C 0.984375 -2.4375 0.59375 -1.78125 0.59375 -1.578125 C 0.59375 -1.5 0.671875 -1.5 0.703125 -1.5 C 0.75 -1.5 0.796875 -1.5 0.8125 -1.5625 C 0.984375 -2.109375 1.4375 -2.25 1.640625 -2.25 C 1.828125 -2.25 2.03125 -2.171875 2.03125 -1.875 C 2.03125 -1.734375 1.9375 -1.359375 1.75 -0.625 C 1.671875 -0.3125 1.40625 -0.125 1.171875 -0.125 C 1.140625 -0.125 0.984375 -0.125 0.84375 -0.21875 C 1.09375 -0.296875 1.09375 -0.515625 1.09375 -0.53125 C 1.09375 -0.6875 0.96875 -0.765625 0.859375 -0.765625 C 0.71875 -0.765625 0.515625 -0.65625 0.515625 -0.390625 C 0.515625 -0.0625 0.890625 0.0625 1.171875 0.0625 C 1.46875 0.0625 1.71875 -0.109375 1.84375 -0.3125 C 2.0625 0.015625 2.421875 0.0625 2.59375 0.0625 C 3.28125 0.0625 3.671875 -0.59375 3.671875 -0.796875 C 3.671875 -0.875 3.578125 -0.875 3.5625 -0.875 C 3.46875 -0.875 3.453125 -0.84375 3.4375 -0.78125 C 3.28125 -0.296875 2.859375 -0.125 2.609375 -0.125 C 2.453125 -0.125 2.21875 -0.1875 2.21875 -0.5 C 2.21875 -0.5625 2.21875 -0.59375 2.265625 -0.78125 C 2.359375 -1.171875 2.515625 -1.78125 2.546875 -1.875 C 2.625 -2.03125 2.8125 -2.25 3.078125 -2.25 C 3.109375 -2.25 3.28125 -2.25 3.421875 -2.15625 Z M 3.421875 -2.15625 "/>
</g>
<g id="glyph-27-0">
<path d="M 2.5625 -1.921875 C 2.484375 -1.90625 2.34375 -1.796875 2.34375 -1.625 C 2.34375 -1.5 2.4375 -1.421875 2.5625 -1.421875 C 2.671875 -1.421875 2.859375 -1.515625 2.859375 -1.765625 C 2.859375 -2.140625 2.375 -2.203125 2.109375 -2.203125 C 1.265625 -2.203125 0.53125 -1.515625 0.53125 -0.859375 C 0.53125 -0.421875 0.859375 0.0625 1.609375 0.0625 C 1.703125 0.0625 2.09375 0.0625 2.4375 -0.078125 C 2.765625 -0.203125 2.96875 -0.4375 2.96875 -0.484375 C 2.96875 -0.53125 2.90625 -0.609375 2.859375 -0.609375 C 2.84375 -0.609375 2.828125 -0.59375 2.75 -0.515625 C 2.53125 -0.265625 2.109375 -0.109375 1.609375 -0.109375 C 1.1875 -0.109375 0.984375 -0.34375 0.984375 -0.6875 C 0.984375 -1.203125 1.328125 -2.03125 2.109375 -2.03125 C 2.15625 -2.03125 2.40625 -2.03125 2.5625 -1.921875 Z M 2.5625 -1.921875 "/>
</g>
<g id="glyph-28-0">
<path d="M 2.15625 -1.375 C 2.15625 -3.234375 0.734375 -4.125 0.625 -4.125 C 0.53125 -4.125 0.53125 -4.0625 0.53125 -4.046875 C 0.53125 -4.046875 0.53125 -4.015625 0.578125 -3.96875 C 1.390625 -3.328125 1.734375 -2.359375 1.734375 -1.375 C 1.734375 -0.875 1.640625 -0.359375 1.453125 0.09375 C 1.1875 0.71875 0.84375 1.015625 0.5625 1.234375 C 0.546875 1.25 0.53125 1.28125 0.53125 1.296875 C 0.53125 1.3125 0.53125 1.375 0.625 1.375 C 0.734375 1.375 2.15625 0.5 2.15625 -1.375 Z M 2.15625 -1.375 "/>
</g>
<g id="glyph-29-0">
<path d="M 4.421875 -2.109375 C 4.421875 -3.453125 3.609375 -3.984375 2.84375 -3.984375 C 1.625 -3.984375 0.390625 -2.734375 0.390625 -1.4375 C 0.390625 -0.515625 1.015625 0.09375 1.890625 0.09375 C 2.859375 0.09375 3.59375 -0.484375 3.828125 -0.65625 C 3.953125 -0.203125 4.25 0.09375 4.6875 0.09375 C 5.171875 0.09375 5.46875 -0.375 5.46875 -0.546875 C 5.46875 -0.640625 5.375 -0.640625 5.34375 -0.640625 C 5.25 -0.640625 5.234375 -0.609375 5.21875 -0.515625 C 5.109375 -0.265625 4.875 -0.125 4.71875 -0.125 C 4.421875 -0.125 4.421875 -0.921875 4.421875 -1.109375 C 4.421875 -1.21875 4.421875 -1.234375 4.515625 -1.34375 C 4.65625 -1.53125 4.90625 -1.84375 5.140625 -2.296875 C 5.40625 -2.828125 5.546875 -3.390625 5.546875 -3.4375 C 5.546875 -3.453125 5.546875 -3.53125 5.4375 -3.53125 C 5.328125 -3.53125 5.328125 -3.515625 5.28125 -3.359375 C 5.1875 -3.046875 4.984375 -2.359375 4.421875 -1.609375 Z M 3.78125 -0.921875 C 3.5625 -0.734375 2.828125 -0.125 1.921875 -0.125 C 1.40625 -0.125 1.078125 -0.453125 1.078125 -1.109375 C 1.078125 -1.5 1.25 -2.390625 1.609375 -2.96875 C 1.84375 -3.328125 2.328125 -3.75 2.84375 -3.75 C 3.453125 -3.75 3.640625 -3.21875 3.71875 -2.671875 C 3.796875 -2.1875 3.75 -1.328125 3.78125 -0.921875 Z M 3.78125 -0.921875 "/>
</g>
</g>
<clipPath id="clip-0">
<path clip-rule="nonzero" d="M 89 22.121094 L 93.476563 22.121094 L 93.476563 28.371094 L 89 28.371094 Z M 89 22.121094 "/>
</clipPath>
<clipPath id="clip-1">
<path clip-rule="nonzero" d="M 179.421875 77.90625 L 185 77.90625 L 185 82.425781 L 179.421875 82.425781 Z M 179.421875 77.90625 "/>
</clipPath>
<clipPath id="clip-2">
<path clip-rule="nonzero" d="M 101 1.25 L 104 1.25 L 104 10.25 L 101 10.25 Z M 101 1.25 "/>
</clipPath>
<clipPath id="clip-3">
<path clip-rule="nonzero" d="M 122 1.25 L 126 1.25 L 126 10.25 L 122 10.25 Z M 122 1.25 "/>
</clipPath>
<clipPath id="clip-4">
<path clip-rule="nonzero" d="M 26 60.480469 L 30 60.480469 L 30 69.480469 L 26 69.480469 Z M 26 60.480469 "/>
</clipPath>
<clipPath id="clip-5">
<path clip-rule="nonzero" d="M 42 60.480469 L 50 60.480469 L 50 69.480469 L 42 69.480469 Z M 42 60.480469 "/>
</clipPath>
<clipPath id="clip-6">
<path clip-rule="nonzero" d="M 129 61.597656 L 132 61.597656 L 132 70.597656 L 129 70.597656 Z M 129 61.597656 "/>
</clipPath>
<clipPath id="clip-7">
<path clip-rule="nonzero" d="M 142 67 L 144 67 L 144 70.597656 L 142 70.597656 Z M 142 67 "/>
</clipPath>
<clipPath id="clip-8">
<path clip-rule="nonzero" d="M 146 61.597656 L 154 61.597656 L 154 70.597656 L 146 70.597656 Z M 146 61.597656 "/>
</clipPath>
<clipPath id="clip-9">
<path clip-rule="nonzero" d="M 73 100.527344 L 74 100.527344 L 74 109.527344 L 73 109.527344 Z M 73 100.527344 "/>
</clipPath>
<clipPath id="clip-10">
<path clip-rule="nonzero" d="M 104 100.527344 L 105 100.527344 L 105 109.527344 L 104 109.527344 Z M 104 100.527344 "/>
</clipPath>
<clipPath id="clip-11">
<path clip-rule="nonzero" d="M 93 76.984375 L 95 76.984375 L 95 82.484375 L 93 82.484375 Z M 93 76.984375 "/>
</clipPath>
<clipPath id="clip-12">
<path clip-rule="nonzero" d="M 100 80 L 103 80 L 103 82.484375 L 100 82.484375 Z M 100 80 "/>
</clipPath>
<clipPath id="clip-13">
<path clip-rule="nonzero" d="M 104 76.984375 L 106 76.984375 L 106 82.484375 L 104 82.484375 Z M 104 76.984375 "/>
</clipPath>
<clipPath id="clip-14">
<path clip-rule="nonzero" d="M 32.347656 98.640625 L 38 98.640625 L 38 102.515625 L 32.347656 102.515625 Z M 32.347656 98.640625 "/>
</clipPath>
</defs>
<path fill-rule="evenodd" fill="rgb(89.4%, 89.4%, 89.4%)" fill-opacity="1" stroke-width="0.4" stroke-linecap="butt" stroke-linejoin="round" stroke="rgb(100%, 100%, 100%)" stroke-opacity="1" stroke-miterlimit="10" d="M 131.183594 670.167969 L 205.007813 699.890625 L 256 720 L 256 640 L 96 640 L 96 656 L 131.183594 670.167969 " transform="matrix(1, 0, 0, -1, -79, 760)"/>
<path fill="none" stroke-width="0.4" stroke-linecap="round" stroke-linejoin="round" stroke="rgb(0%, 0%, 0%)" stroke-opacity="1" stroke-miterlimit="10" d="M 176 752 L 176 752 " transform="matrix(1, 0, 0, -1, -79, 760)"/>
<path fill="none" stroke-width="0.4" stroke-linecap="butt" stroke-linejoin="round" stroke="rgb(0%, 0%, 0%)" stroke-opacity="1" stroke-miterlimit="10" d="M 168.675781 741.273438 C 173.320313 738.683594 178.980469 738.695313 183.613281 741.304688 " transform="matrix(1, 0, 0, -1, -79, 760)"/>
<g clip-path="url(#clip-0)">
<g fill="rgb(0%, 0%, 0%)" fill-opacity="1">
<use xlink:href="#glyph-0-0" x="88.8888" y="28.3718"/>
</g>
</g>
<path fill="none" stroke-width="0.4" stroke-linecap="butt" stroke-linejoin="round" stroke="rgb(0%, 0%, 0%)" stroke-opacity="1" stroke-miterlimit="10" d="M 176 755.503906 L 131.183594 670.167969 " transform="matrix(1, 0, 0, -1, -79, 760)"/>
<path fill="none" stroke-width="0.4" stroke-linecap="butt" stroke-linejoin="round" stroke="rgb(0%, 0%, 0%)" stroke-opacity="1" stroke-miterlimit="10" d="M 176 755.503906 L 205.007813 699.890625 " transform="matrix(1, 0, 0, -1, -79, 760)"/>
<path fill="none" stroke-width="0.4" stroke-linecap="butt" stroke-linejoin="round" stroke="rgb(0%, 0%, 0%)" stroke-opacity="1" stroke-miterlimit="10" d="M 80 688 L 272 688 " transform="matrix(1, 0, 0, -1, -79, 760)"/>
<path fill-rule="evenodd" fill="rgb(0%, 0%, 0%)" fill-opacity="1" stroke-width="0.4" stroke-linecap="butt" stroke-linejoin="round" stroke="rgb(0%, 0%, 0%)" stroke-opacity="1" stroke-miterlimit="10" d="M 272 688 L 267 689.664063 L 267 686.335938 Z M 272 688 " transform="matrix(1, 0, 0, -1, -79, 760)"/>
<g clip-path="url(#clip-1)">
<g fill="rgb(0%, 0%, 0%)" fill-opacity="1">
<use xlink:href="#glyph-1-0" x="179.4226" y="82.4253"/>
</g>
</g>
<path fill-rule="evenodd" fill="rgb(0%, 0%, 0%)" fill-opacity="1" d="M 98.800781 4.496094 C 98.800781 2.09375 95.199219 2.09375 95.199219 4.496094 C 95.199219 6.894531 98.800781 6.894531 98.800781 4.496094 Z M 98.800781 4.496094 "/>
<g clip-path="url(#clip-2)">
<g fill="rgb(0%, 0%, 0%)" fill-opacity="1">
<use xlink:href="#glyph-2-0" x="100.7358" y="8"/>
</g>
</g>
<g fill="rgb(0%, 0%, 0%)" fill-opacity="1">
<use xlink:href="#glyph-3-0" x="104.3328" y="8"/>
</g>
<g fill="rgb(0%, 0%, 0%)" fill-opacity="1">
<use xlink:href="#glyph-4-0" x="109.5758" y="9"/>
</g>
<g fill="rgb(0%, 0%, 0%)" fill-opacity="1">
<use xlink:href="#glyph-5-0" x="113.4158" y="8"/>
<use xlink:href="#glyph-5-1" x="117.5198" y="8"/>
</g>
<g clip-path="url(#clip-3)">
<g fill="rgb(0%, 0%, 0%)" fill-opacity="1">
<use xlink:href="#glyph-6-0" x="122.4058" y="8"/>
</g>
</g>
<path fill="none" stroke-width="0.4" stroke-linecap="butt" stroke-linejoin="round" stroke="rgb(0%, 0%, 0%)" stroke-opacity="1" stroke-dasharray="4" stroke-miterlimit="10" d="M 131.183594 670.167969 L 131.183594 688 " transform="matrix(1, 0, 0, -1, -79, 760)"/>
<g clip-path="url(#clip-4)">
<g fill="rgb(0%, 0%, 0%)" fill-opacity="1">
<use xlink:href="#glyph-7-0" x="25.9787" y="67.23023"/>
</g>
</g>
<g fill="rgb(0%, 0%, 0%)" fill-opacity="1">
<use xlink:href="#glyph-8-0" x="29.5757" y="67.23023"/>
</g>
<g fill="rgb(0%, 0%, 0%)" fill-opacity="1">
<use xlink:href="#glyph-9-0" x="34.8187" y="68.28123"/>
</g>
<g fill="rgb(0%, 0%, 0%)" fill-opacity="1">
<use xlink:href="#glyph-10-0" x="37.7177" y="67.23023"/>
</g>
<g clip-path="url(#clip-5)">
<g fill="rgb(0%, 0%, 0%)" fill-opacity="1">
<use xlink:href="#glyph-11-0" x="41.8287" y="67.23023"/>
<use xlink:href="#glyph-11-1" x="46.4457" y="67.23023"/>
</g>
</g>
<g clip-path="url(#clip-6)">
<g fill="rgb(0%, 0%, 0%)" fill-opacity="1">
<use xlink:href="#glyph-12-0" x="128.69669" y="68.34825"/>
</g>
</g>
<g fill="rgb(0%, 0%, 0%)" fill-opacity="1">
<use xlink:href="#glyph-13-0" x="132.29469" y="68.34825"/>
</g>
<g fill="rgb(0%, 0%, 0%)" fill-opacity="1">
<use xlink:href="#glyph-14-0" x="137.53769" y="69.34825"/>
</g>
<g clip-path="url(#clip-7)">
<g fill="rgb(0%, 0%, 0%)" fill-opacity="1">
<use xlink:href="#glyph-15-0" x="141.69569" y="68.34825"/>
</g>
</g>
<g clip-path="url(#clip-8)">
<g fill="rgb(0%, 0%, 0%)" fill-opacity="1">
<use xlink:href="#glyph-16-0" x="145.80669" y="68.34825"/>
<use xlink:href="#glyph-16-1" x="150.42369" y="68.34825"/>
</g>
</g>
<path fill="none" stroke-width="0.4" stroke-linecap="butt" stroke-linejoin="round" stroke="rgb(0%, 0%, 0%)" stroke-opacity="1" stroke-miterlimit="10" d="M 131.183594 670.167969 L 204.789063 670.167969 " transform="matrix(1, 0, 0, -1, -79, 760)"/>
<path fill="none" stroke-width="0.4" stroke-linecap="butt" stroke-linejoin="round" stroke="rgb(0%, 0%, 0%)" stroke-opacity="1" stroke-miterlimit="10" d="M 205.007813 694.796875 L 205.007813 694.796875 " transform="matrix(1, 0, 0, -1, -79, 760)"/>
<path fill="none" stroke-width="0.4" stroke-linecap="butt" stroke-linejoin="round" stroke="rgb(0%, 0%, 0%)" stroke-opacity="1" stroke-dasharray="4" stroke-miterlimit="10" d="M 205.007813 699.890625 L 205.007813 670.183594 " transform="matrix(1, 0, 0, -1, -79, 760)"/>
<path fill-rule="evenodd" fill="rgb(0%, 0%, 0%)" fill-opacity="1" d="M 53.984375 72 C 53.984375 69.601563 50.382813 69.601563 50.382813 72 C 50.382813 74.398438 53.984375 74.398438 53.984375 72 Z M 53.984375 72 "/>
<path fill-rule="evenodd" fill="rgb(0%, 0%, 0%)" fill-opacity="1" d="M 127.808594 72 C 127.808594 69.601563 124.207031 69.601563 124.207031 72 C 124.207031 74.398438 127.808594 74.398438 127.808594 72 Z M 127.808594 72 "/>
<path fill="none" stroke-width="0.4" stroke-linecap="butt" stroke-linejoin="round" stroke="rgb(0%, 0%, 0%)" stroke-opacity="1" stroke-miterlimit="10" d="M 131.183594 670.167969 L 131.183594 661.351563 L 131.105469 661.351563 " transform="matrix(1, 0, 0, -1, -79, 760)"/>
<path fill="none" stroke-width="0.4" stroke-linecap="butt" stroke-linejoin="round" stroke="rgb(54.5%, 0%, 54.5%)" stroke-opacity="1" stroke-miterlimit="10" d="M 204.789063 670.167969 L 204.789063 661.71875 " transform="matrix(1, 0, 0, -1, -79, 760)"/>
<path fill="none" stroke-width="0.4" stroke-linecap="butt" stroke-linejoin="round" stroke="rgb(0%, 0%, 0%)" stroke-opacity="1" stroke-miterlimit="10" d="M 131.183594 663.125 L 204.789063 663.125 " transform="matrix(1, 0, 0, -1, -79, 760)"/>
<path fill-rule="evenodd" fill="rgb(0%, 0%, 0%)" fill-opacity="1" stroke-width="0.4" stroke-linecap="butt" stroke-linejoin="round" stroke="rgb(0%, 0%, 0%)" stroke-opacity="1" stroke-miterlimit="10" d="M 204.789063 663.125 L 199.789063 664.789063 L 199.789063 661.457031 Z M 204.789063 663.125 " transform="matrix(1, 0, 0, -1, -79, 760)"/>
<path fill-rule="evenodd" fill="rgb(0%, 0%, 0%)" fill-opacity="1" stroke-width="0.4" stroke-linecap="butt" stroke-linejoin="round" stroke="rgb(0%, 0%, 0%)" stroke-opacity="1" stroke-miterlimit="10" d="M 131.183594 663.125 L 136.183594 661.457031 L 136.183594 664.789063 Z M 131.183594 663.125 " transform="matrix(1, 0, 0, -1, -79, 760)"/>
<g clip-path="url(#clip-9)">
<g fill="rgb(0%, 0%, 0%)" fill-opacity="1">
<use xlink:href="#glyph-17-0" x="72.10162" y="107.27785"/>
</g>
</g>
<g fill="rgb(0%, 0%, 0%)" fill-opacity="1">
<use xlink:href="#glyph-18-0" x="74.67062" y="107.27785"/>
</g>
<g fill="rgb(0%, 0%, 0%)" fill-opacity="1">
<use xlink:href="#glyph-19-0" x="79.91362" y="108.32885"/>
</g>
<g fill="rgb(0%, 0%, 0%)" fill-opacity="1">
<use xlink:href="#glyph-20-0" x="84.86862" y="107.27785"/>
</g>
<g fill="rgb(0%, 0%, 0%)" fill-opacity="1">
<use xlink:href="#glyph-21-0" x="94.11862" y="107.27785"/>
</g>
<g fill="rgb(0%, 0%, 0%)" fill-opacity="1">
<use xlink:href="#glyph-22-0" x="99.36162" y="108.27785"/>
</g>
<g clip-path="url(#clip-10)">
<g fill="rgb(0%, 0%, 0%)" fill-opacity="1">
<use xlink:href="#glyph-23-0" x="103.51962" y="107.27785"/>
</g>
</g>
<path fill="none" stroke-width="0.4" stroke-linecap="butt" stroke-linejoin="round" stroke="rgb(0%, 0%, 0%)" stroke-opacity="1" stroke-miterlimit="10" d="M 96 656 L 256 720 " transform="matrix(1, 0, 0, -1, -79, 760)"/>
<g fill="rgb(65.9%, 36.1%, 0%)" fill-opacity="1">
<use xlink:href="#glyph-24-0" x="84.464832" y="81.110694"/>
</g>
<g clip-path="url(#clip-11)">
<g fill="rgb(65.9%, 36.1%, 0%)" fill-opacity="1">
<use xlink:href="#glyph-25-0" x="92.454832" y="81.110694"/>
</g>
</g>
<g fill="rgb(65.9%, 36.1%, 0%)" fill-opacity="1">
<use xlink:href="#glyph-26-0" x="95.433832" y="81.110694"/>
</g>
<g clip-path="url(#clip-12)">
<g fill="rgb(65.9%, 36.1%, 0%)" fill-opacity="1">
<use xlink:href="#glyph-27-0" x="99.788832" y="82.210694"/>
</g>
</g>
<g clip-path="url(#clip-13)">
<g fill="rgb(65.9%, 36.1%, 0%)" fill-opacity="1">
<use xlink:href="#glyph-28-0" x="103.521832" y="81.110694"/>
</g>
</g>
<path fill="none" stroke-width="0.4" stroke-linecap="butt" stroke-linejoin="round" stroke="rgb(65.9%, 36.1%, 0%)" stroke-opacity="1" stroke-miterlimit="10" d="M 131.183594 670.167969 L 205.007813 699.601563 " transform="matrix(1, 0, 0, -1, -79, 760)"/>
<path fill="none" stroke-width="0.4" stroke-linecap="butt" stroke-linejoin="round" stroke="rgb(0%, 0%, 0%)" stroke-opacity="1" stroke-dasharray="4" stroke-miterlimit="10" d="M 96 656 L 123.195313 656 " transform="matrix(1, 0, 0, -1, -79, 760)"/>
<path fill="none" stroke-width="0.4" stroke-linecap="butt" stroke-linejoin="round" stroke="rgb(0%, 0%, 0%)" stroke-opacity="1" stroke-dasharray="4" stroke-miterlimit="10" d="M 108.613281 661.046875 C 109.253906 659.441406 109.585938 657.726563 109.585938 656 " transform="matrix(1, 0, 0, -1, -79, 760)"/>
<g clip-path="url(#clip-14)">
<g fill="rgb(0%, 0%, 0%)" fill-opacity="1">
<use xlink:href="#glyph-29-0" x="32.347064" y="102.517463"/>
</g>
</g>
</svg>
